<?xml version="1.0" encoding="UTF-8" standalone="no"?>
<!-- Created with Inkscape (http://www.inkscape.org/) -->

<svg
   xmlns:dc="http://purl.org/dc/elements/1.1/"
   xmlns:cc="http://creativecommons.org/ns#"
   xmlns:rdf="http://www.w3.org/1999/02/22-rdf-syntax-ns#"
   xmlns:svg="http://www.w3.org/2000/svg"
   xmlns="http://www.w3.org/2000/svg"
   xmlns:sodipodi="http://sodipodi.sourceforge.net/DTD/sodipodi-0.dtd"
   xmlns:inkscape="http://www.inkscape.org/namespaces/inkscape"
   width="210mm"
   height="297mm"
   viewBox="0 0 210 297"
   version="1.1"
   id="svg1982"
   inkscape:version="0.92.4 (5da689c313, 2019-01-14)"
   sodipodi:docname="target.svg">
  <defs
     id="defs1976" />
  <sodipodi:namedview
     id="base"
     pagecolor="#ffffff"
     bordercolor="#666666"
     borderopacity="1.0"
     inkscape:pageopacity="0.0"
     inkscape:pageshadow="2"
     inkscape:zoom="0.04375"
     inkscape:cx="-693.73953"
     inkscape:cy="811.40925"
     inkscape:document-units="mm"
     inkscape:current-layer="layer1"
     showgrid="false"
     showborder="false"
     inkscape:window-width="1838"
     inkscape:window-height="1016"
     inkscape:window-x="82"
     inkscape:window-y="27"
     inkscape:window-maximized="1" />
  <metadata
     id="metadata1979">
    <rdf:RDF>
      <cc:Work
         rdf:about="">
        <dc:format>image/svg+xml</dc:format>
        <dc:type
           rdf:resource="http://purl.org/dc/dcmitype/StillImage" />
        <dc:title></dc:title>
      </cc:Work>
    </rdf:RDF>
  </metadata>
  <g
     inkscape:label="Layer 1"
     inkscape:groupmode="layer"
     id="layer1">
    <rect
       style="opacity:1;fill:#784421;fill-opacity:1;stroke:none;stroke-width:104.14962006;stroke-miterlimit:4;stroke-dasharray:none;stroke-opacity:1"
       id="rect2610"
       width="44.98827"
       height="768.75409"
       x="98.054733"
       y="395.96872"
       ry="0"
       transform="rotate(-90)" />
    <path
       style="opacity:1;fill:#666666;fill-opacity:1;stroke:none;stroke-width:22.56362152;stroke-miterlimit:4;stroke-dasharray:none;stroke-opacity:1"
       d="m -248.09215,-246.98138 150.642788,-23.92407 c -12.119108,47.87749 10.123985,86.66233 38.040765,123.54116 l -189.571383,30.10749 c 14.81627,-41.74012 21.49735,-84.32031 0.88783,-129.72458 z"
       id="rect2579"
       inkscape:connector-curvature="0"
       sodipodi:nodetypes="ccccc" />
    <rect
       style="opacity:1;fill:#784421;fill-opacity:1;stroke:none;stroke-width:104.14962006;stroke-miterlimit:4;stroke-dasharray:none;stroke-opacity:1"
       id="rect2539"
       width="44.98827"
       height="768.75409"
       x="-185.17227"
       y="-267.55688"
       ry="0" />
    <path
       style="opacity:1;fill:#e9c6af;fill-opacity:1;stroke:none;stroke-width:43.67152023;stroke-miterlimit:4;stroke-dasharray:none;stroke-opacity:1"
       d="m -263.64266,-159.97331 h 201.083358 c 15.8817,2.19334 47.878644,9.94411 53.4290507,29.51963 1.3133153,4.63188 -1.5926347,12.88944 -7.0945357,12.58093 -2.561804,-0.14365 -10.213589,-0.84828 -15.449326,-4.954 -6.698569,-5.25284 -10.804113,-14.03021 -9.829353,-12.43232 29.35865,48.126728 46.5506686,140.0227192 27.32514,198.537277 -8.11156,24.688235 -19.735104,50.835733 -26.071734,67.548823 7.392944,0.61235 37.3560462,13.77033 23.838643,24.69323 -4.034472,7.97926 -38.782908,0.67414 -46.039943,-0.64647 -35.895326,15.84221 -78.72239,22.64753 -103.49002,22.82179 -26.68392,0.18775 -69.99033,-12.24213 -104.7224,-27.81116 -11.79869,5.94397 -37.62639,12.72603 -49.52728,7.74713 -10.45523,-6.89284 13.04429,-29.49097 21.37295,-26.63811 -2.01818,-3.5159 -3.36273,-7.10746 -4.28721,-10.78608 -3.64976,-14.52283 -0.7523,-30.40241 -6.90982,-48.338824 -18.42146,-53.660414 -24.95614,-176.142726 24.55112,-199.889996 8.76502,-4.20435 -35.41221,22.19338 -41.28547,5.28491 -8.41948,-24.23875 42.7111,-36.94892 63.10683,-37.23676 z"
       id="rect2532"
       inkscape:connector-curvature="0"
       sodipodi:nodetypes="ccacssscccscccssssc" />
    <circle
       style="opacity:1;fill:#c83737;fill-opacity:1;stroke:none;stroke-width:48.76226425;stroke-miterlimit:4;stroke-dasharray:none;stroke-opacity:1"
       id="path2535"
       cx="-162.67813"
       cy="8.8624735"
       r="120.84448" />
    <circle
       cy="8.8624735"
       cx="-162.67813"
       id="circle2537"
       style="opacity:1;fill:#e9c6af;fill-opacity:1;stroke:none;stroke-width:36.26493835;stroke-miterlimit:4;stroke-dasharray:none;stroke-opacity:1"
       r="89.873878" />
    <circle
       cy="8.8624735"
       cx="-162.67813"
       id="circle2560"
       style="opacity:1;fill:#c83737;fill-opacity:1;stroke:none;stroke-width:27.31707382;stroke-miterlimit:4;stroke-dasharray:none;stroke-opacity:1"
       r="67.698692" />
    <path
       style="opacity:1;fill:#808080;fill-opacity:1;stroke:none;stroke-width:24.96082878;stroke-miterlimit:4;stroke-dasharray:none;stroke-opacity:1"
       d="m -189.72966,-365.72559 a 108.11898,76.265626 80.975895 0 0 -58.36249,118.74421 l 62.91988,-9.99216 6.10996,38.47283 6.61842,15.69556 -2.00685,13.34338 14.30366,10.00931 10.50127,-13.94843 -5.94841,-11.46033 1.24061,-18.18336 -6.01449,-37.86894 62.918744,-9.99193 a 108.11898,76.265626 80.975895 0 0 -92.280304,-94.82014 z"
       id="path2573"
       inkscape:connector-curvature="0" />
    <path
       sodipodi:nodetypes="ccccc"
       inkscape:connector-curvature="0"
       id="path2596"
       d="m 699.11666,-246.98138 150.64279,-23.92407 c -12.11911,47.87749 10.12399,86.66233 38.04079,123.54116 l -189.57141,30.10749 c 14.81627,-41.74012 21.49735,-84.32031 0.88783,-129.72458 z"
       style="opacity:1;fill:#666666;fill-opacity:1;stroke:none;stroke-width:22.56362152;stroke-miterlimit:4;stroke-dasharray:none;stroke-opacity:1" />
    <rect
       ry="0"
       y="-267.55688"
       x="762.03668"
       height="768.75409"
       width="44.98827"
       id="rect2598"
       style="opacity:1;fill:#784421;fill-opacity:1;stroke:none;stroke-width:104.14962006;stroke-miterlimit:4;stroke-dasharray:none;stroke-opacity:1" />
    <path
       sodipodi:nodetypes="ccacssscccscccssssc"
       inkscape:connector-curvature="0"
       id="path2600"
       d="m 683.56615,-159.97331 h 201.08338 c 15.88171,2.19334 47.87867,9.94411 53.42908,29.51963 1.31332,4.63188 -1.59263,12.88944 -7.09453,12.58093 -2.56181,-0.14365 -10.2136,-0.84828 -15.44934,-4.954 -6.69858,-5.25284 -10.80412,-14.03021 -9.82936,-12.43232 29.35867,48.126728 46.5507,140.0227192 27.32516,198.537277 -8.11157,24.688235 -19.73512,50.835733 -26.07175,67.548823 7.39294,0.61235 37.35606,13.77033 23.83866,24.69323 -4.03448,7.97926 -38.78294,0.67414 -46.03998,-0.64647 -35.89534,15.84221 -78.72241,22.64753 -103.49004,22.82179 -26.68392,0.18775 -69.99033,-12.24213 -104.7224,-27.81116 -11.79869,5.94397 -37.62639,12.72603 -49.52728,7.74713 -10.45523,-6.89284 13.04429,-29.49097 21.37295,-26.63811 -2.01818,-3.5159 -3.36273,-7.10746 -4.28721,-10.78608 -3.64976,-14.52283 -0.7523,-30.40241 -6.90982,-48.338824 -18.42146,-53.660414 -24.95614,-176.142726 24.55112,-199.889996 8.76502,-4.20435 -35.41221,22.19338 -41.28547,5.28491 -8.41948,-24.23875 42.7111,-36.94892 63.10683,-37.23676 z"
       style="opacity:1;fill:#e9c6af;fill-opacity:1;stroke:none;stroke-width:43.67152023;stroke-miterlimit:4;stroke-dasharray:none;stroke-opacity:1" />
    <circle
       r="120.84448"
       cy="8.8624735"
       cx="784.53088"
       id="circle2602"
       style="opacity:1;fill:#c83737;fill-opacity:1;stroke:none;stroke-width:48.76226425;stroke-miterlimit:4;stroke-dasharray:none;stroke-opacity:1" />
    <circle
       r="89.873878"
       style="opacity:1;fill:#e9c6af;fill-opacity:1;stroke:none;stroke-width:36.26493835;stroke-miterlimit:4;stroke-dasharray:none;stroke-opacity:1"
       id="circle2604"
       cx="784.53088"
       cy="8.8624735" />
    <circle
       r="67.698692"
       style="opacity:1;fill:#c83737;fill-opacity:1;stroke:none;stroke-width:27.31707382;stroke-miterlimit:4;stroke-dasharray:none;stroke-opacity:1"
       id="circle2606"
       cx="784.53088"
       cy="8.8624735" />
    <path
       inkscape:connector-curvature="0"
       id="path2608"
       d="m 757.47915,-365.72559 a 108.11898,76.265626 80.975895 0 0 -58.36249,118.74421 l 62.91988,-9.99216 6.10996,38.47283 6.61842,15.69556 -2.00685,13.34338 14.30366,10.00931 10.50127,-13.94843 -5.94841,-11.46033 1.24061,-18.18336 -6.01449,-37.86894 62.91875,-9.99193 a 108.11898,76.265626 80.975895 0 0 -92.28031,-94.82014 z"
       style="opacity:1;fill:#808080;fill-opacity:1;stroke:none;stroke-width:24.96082878;stroke-miterlimit:4;stroke-dasharray:none;stroke-opacity:1" />
    <path
       style="opacity:1;fill:#e9c6af;fill-opacity:1;stroke:none;stroke-width:25.75478745;stroke-miterlimit:4;stroke-dasharray:none;stroke-opacity:1"
       d="m 486.49529,-120.54879 c 0,17.11597 -10.17214,24.326696 -26.13168,34.435932 -12.42334,7.868586 -28.35318,20.679144 -45.72247,20.679144 -39.68386,0 -71.85416,-24.675738 -71.85416,-55.115076 0,-30.43948 32.1703,-55.11513 71.85416,-55.11513 16.52539,0 31.74801,12.36224 43.88683,19.55433 17.01136,10.07972 27.96732,17.79724 27.96732,35.5608 z"
       id="path2612"
       inkscape:connector-curvature="0"
       sodipodi:nodetypes="sssssss" />
    <path
       sodipodi:nodetypes="sssssss"
       inkscape:connector-curvature="0"
       id="path2615"
       d="m 1067.7461,-120.54879 c 0,17.11597 10.1722,24.326696 26.1319,34.435932 12.4234,7.868586 28.3533,20.679144 45.7227,20.679144 39.6841,0 71.8545,-24.675738 71.8545,-55.115076 0,-30.43948 -32.1704,-55.11513 -71.8545,-55.11513 -16.5255,0 -31.7482,12.36224 -43.8871,19.55433 -17.0115,10.07972 -27.9675,17.79724 -27.9675,35.5608 z"
       style="opacity:1;fill:#e9c6af;fill-opacity:1;stroke:none;stroke-width:25.75478745;stroke-miterlimit:4;stroke-dasharray:none;stroke-opacity:1" />
    <rect
       style="opacity:1;fill:#784421;fill-opacity:1;stroke:none;stroke-width:45.45949936;stroke-miterlimit:4;stroke-dasharray:none;stroke-opacity:1"
       id="rect2617"
       width="23.606709"
       height="279.11633"
       x="486.97653"
       y="-136.90364"
       ry="0" />
    <rect
       ry="0"
       y="-136.90364"
       x="1042.6034"
       height="279.11633"
       width="23.606709"
       id="rect2619"
       style="opacity:1;fill:#784421;fill-opacity:1;stroke:none;stroke-width:45.45949936;stroke-miterlimit:4;stroke-dasharray:none;stroke-opacity:1" />
    <circle
       style="opacity:1;fill:#e9c6af;fill-opacity:1;stroke:none;stroke-width:34.56292725;stroke-miterlimit:4;stroke-dasharray:none;stroke-opacity:1"
       id="circle2660"
       cx="501.39764"
       cy="166.73363"
       r="85.65535" />
    <circle
       r="69.528488"
       cy="166.73363"
       cx="501.39764"
       id="circle2602-7"
       style="opacity:1;fill:#c83737;fill-opacity:1;stroke:none;stroke-width:28.05561638;stroke-miterlimit:4;stroke-dasharray:none;stroke-opacity:1" />
    <circle
       r="55.447968"
       style="opacity:1;fill:#e9c6af;fill-opacity:1;stroke:none;stroke-width:22.37365341;stroke-miterlimit:4;stroke-dasharray:none;stroke-opacity:1"
       id="circle2604-5"
       cx="501.39764"
       cy="166.73363" />
    <circle
       r="41.766884"
       style="opacity:1;fill:#c83737;fill-opacity:1;stroke:none;stroke-width:16.85317993;stroke-miterlimit:4;stroke-dasharray:none;stroke-opacity:1"
       id="circle2606-3"
       cx="501.39764"
       cy="166.73363" />
    <circle
       r="85.65535"
       cy="166.73363"
       cx="1051.7327"
       id="circle2662"
       style="opacity:1;fill:#e9c6af;fill-opacity:1;stroke:none;stroke-width:34.56292725;stroke-miterlimit:4;stroke-dasharray:none;stroke-opacity:1" />
    <circle
       style="opacity:1;fill:#c83737;fill-opacity:1;stroke:none;stroke-width:28.05561638;stroke-miterlimit:4;stroke-dasharray:none;stroke-opacity:1"
       id="circle2664"
       cx="1051.7327"
       cy="166.73363"
       r="69.528488" />
    <circle
       cy="166.73363"
       cx="1051.7327"
       id="circle2666"
       style="opacity:1;fill:#e9c6af;fill-opacity:1;stroke:none;stroke-width:22.37365341;stroke-miterlimit:4;stroke-dasharray:none;stroke-opacity:1"
       r="55.447968" />
    <circle
       cy="166.73363"
       cx="1051.7327"
       id="circle2668"
       style="opacity:1;fill:#c83737;fill-opacity:1;stroke:none;stroke-width:16.85317993;stroke-miterlimit:4;stroke-dasharray:none;stroke-opacity:1"
       r="41.766884" />
    <rect
       style="opacity:1;fill:#784421;fill-opacity:1;stroke:none;stroke-width:104.14962006;stroke-miterlimit:4;stroke-dasharray:none;stroke-opacity:1"
       id="rect2610-5"
       width="44.98827"
       height="768.75409"
       x="1572.4258"
       y="-2251.3462"
       ry="0"
       transform="rotate(-90)" />
    <path
       sodipodi:nodetypes="ccccc"
       inkscape:connector-curvature="0"
       id="path2596-6"
       d="m -1683.067,-1815.4313 150.6428,-23.9241 c -12.1191,47.8775 10.124,86.6623 38.0408,123.5412 l -189.5714,30.1075 c 14.8163,-41.7402 21.4973,-84.3203 0.8878,-129.7246 z"
       style="opacity:1;fill:#666666;fill-opacity:1;stroke:none;stroke-width:22.56362152;stroke-miterlimit:4;stroke-dasharray:none;stroke-opacity:1" />
    <rect
       ry="0"
       y="-1652.1254"
       x="-1032.1539"
       height="768.75409"
       width="44.98827"
       id="rect2598-2"
       style="opacity:1;fill:#784421;fill-opacity:1;stroke:none;stroke-width:104.14962006;stroke-miterlimit:4;stroke-dasharray:none;stroke-opacity:1" />
    <path
       sodipodi:nodetypes="ccacssscccscccssssc"
       inkscape:connector-curvature="0"
       id="path2600-9"
       d="m -2667.2023,-1281.5486 h 201.0834 c 15.8817,2.1933 47.8787,9.9441 53.4291,29.5196 1.3133,4.6319 -1.5926,12.8895 -7.0945,12.581 -2.5619,-0.1437 -10.2136,-0.8483 -15.4494,-4.954 -6.6986,-5.2529 -10.8041,-14.0302 -9.8294,-12.4323 29.3587,48.1267 46.5508,140.0227 27.3252,198.5372 -8.1116,24.6883 -19.7351,50.8358 -26.0717,67.54886 7.3929,0.61236 37.356,13.77032 23.8386,24.69322 -4.0345,7.97925 -38.7829,0.67414 -46.04,-0.64645 -35.8953,15.84219 -78.7224,22.64751 -103.49,22.82176 -26.6839,0.18778 -69.9903,-12.24211 -104.7224,-27.81114 -11.7987,5.94397 -37.6264,12.72603 -49.5273,7.74713 -10.4552,-6.89285 13.0443,-29.49096 21.373,-26.63812 -2.0182,-3.51589 -3.3628,-7.10745 -4.2872,-10.78606 -3.6498,-14.5228 -0.7524,-30.4024 -6.9099,-48.3388 -18.4214,-53.6604 -24.9561,-176.1428 24.5512,-199.89 8.765,-4.2044 -35.4123,22.1933 -41.2855,5.2849 -8.4195,-24.2388 42.7111,-36.949 63.1068,-37.2368 z"
       style="opacity:1;fill:#e9c6af;fill-opacity:1;stroke:none;stroke-width:43.67152023;stroke-miterlimit:4;stroke-dasharray:none;stroke-opacity:1" />
    <circle
       r="120.84448"
       cy="-1116.9891"
       cx="-2895.5137"
       id="circle2602-1"
       style="opacity:1;fill:#c83737;fill-opacity:1;stroke:none;stroke-width:48.76226425;stroke-miterlimit:4;stroke-dasharray:none;stroke-opacity:1" />
    <circle
       r="89.873886"
       style="opacity:1;fill:#e9c6af;fill-opacity:1;stroke:none;stroke-width:36.26493835;stroke-miterlimit:4;stroke-dasharray:none;stroke-opacity:1"
       id="circle2604-2"
       cx="-2566.2375"
       cy="-759.91699" />
    <circle
       r="67.698692"
       style="opacity:1;fill:#c83737;fill-opacity:1;stroke:none;stroke-width:27.31707382;stroke-miterlimit:4;stroke-dasharray:none;stroke-opacity:1"
       id="circle2606-7"
       cx="-2172.8167"
       cy="-956.62738" />
    <path
       inkscape:connector-curvature="0"
       id="path2608-0"
       d="m -1939.0135,-1904.2413 a 108.11898,76.265627 80.975895 0 0 -58.3625,118.7442 l 62.9199,-9.9922 6.11,38.4728 6.6184,15.6956 -2.0069,13.3434 14.3037,10.0093 10.5013,-13.9484 -5.9484,-11.4604 1.2406,-18.1833 -6.0145,-37.869 62.9187,-9.9919 a 108.11898,76.265627 80.975895 0 0 -92.2803,-94.8201 z"
       style="opacity:1;fill:#808080;fill-opacity:1;stroke:none;stroke-width:24.96082878;stroke-miterlimit:4;stroke-dasharray:none;stroke-opacity:1" />
    <path
       style="opacity:1;fill:#e9c6af;fill-opacity:1;stroke:none;stroke-width:25.75478745;stroke-miterlimit:4;stroke-dasharray:none;stroke-opacity:1"
       d="m -2500.7866,-1440.9726 c 0,17.116 -10.1721,24.3267 -26.1317,34.4359 -12.4233,7.8686 -28.3531,20.6792 -45.7224,20.6792 -39.6839,0 -71.8542,-24.6758 -71.8542,-55.1151 0,-30.4395 32.1703,-55.1151 71.8542,-55.1151 16.5253,0 31.748,12.3622 43.8868,19.5543 17.0114,10.0797 27.9673,17.7972 27.9673,35.5608 z"
       id="path2612-9"
       inkscape:connector-curvature="0"
       sodipodi:nodetypes="sssssss" />
    <path
       sodipodi:nodetypes="sssssss"
       inkscape:connector-curvature="0"
       id="path2615-3"
       d="m -1269.5363,-1426.0055 c 0,17.116 10.1722,24.3267 26.1319,34.4359 12.4234,7.8686 28.3533,20.6792 45.7227,20.6792 39.6841,0 71.8545,-24.6758 71.8545,-55.1151 0,-30.4395 -32.1704,-55.1151 -71.8545,-55.1151 -16.5255,0 -31.7482,12.3622 -43.8871,19.5543 -17.0115,10.0797 -27.9675,17.7972 -27.9675,35.5608 z"
       style="opacity:1;fill:#e9c6af;fill-opacity:1;stroke:none;stroke-width:25.75478745;stroke-miterlimit:4;stroke-dasharray:none;stroke-opacity:1" />
    <rect
       style="opacity:1;fill:#784421;fill-opacity:1;stroke:none;stroke-width:45.45949936;stroke-miterlimit:4;stroke-dasharray:none;stroke-opacity:1"
       id="rect2617-6"
       width="23.606709"
       height="279.11633"
       x="-1739.1217"
       y="-1335.4525"
       ry="0" />
    <rect
       ry="0"
       y="-1457.3274"
       x="-1422.9684"
       height="279.11633"
       width="23.606709"
       id="rect2619-0"
       style="opacity:1;fill:#784421;fill-opacity:1;stroke:none;stroke-width:45.45949936;stroke-miterlimit:4;stroke-dasharray:none;stroke-opacity:1" />
    <circle
       style="opacity:1;fill:#e9c6af;fill-opacity:1;stroke:none;stroke-width:34.56292725;stroke-miterlimit:4;stroke-dasharray:none;stroke-opacity:1"
       id="circle2660-6"
       cx="-1607.1019"
       cy="-1431.6505"
       r="85.65535" />
    <circle
       r="69.528488"
       cy="-1425.236"
       cx="-1788.8452"
       id="circle2602-7-2"
       style="opacity:1;fill:#c83737;fill-opacity:1;stroke:none;stroke-width:28.05561829;stroke-miterlimit:4;stroke-dasharray:none;stroke-opacity:1" />
    <circle
       r="55.447968"
       style="opacity:1;fill:#e9c6af;fill-opacity:1;stroke:none;stroke-width:22.37365532;stroke-miterlimit:4;stroke-dasharray:none;stroke-opacity:1"
       id="circle2604-5-6"
       cx="-1934.2399"
       cy="-1423.0979" />
    <circle
       r="41.766884"
       style="opacity:1;fill:#c83737;fill-opacity:1;stroke:none;stroke-width:16.85317993;stroke-miterlimit:4;stroke-dasharray:none;stroke-opacity:1"
       id="circle2606-3-1"
       cx="-2058.2529"
       cy="-1414.5452" />
    <circle
       r="85.65535"
       cy="-978.36139"
       cx="-1625.5166"
       id="circle2662-8"
       style="opacity:1;fill:#e9c6af;fill-opacity:1;stroke:none;stroke-width:34.56292725;stroke-miterlimit:4;stroke-dasharray:none;stroke-opacity:1" />
    <circle
       style="opacity:1;fill:#c83737;fill-opacity:1;stroke:none;stroke-width:28.05561829;stroke-miterlimit:4;stroke-dasharray:none;stroke-opacity:1"
       id="circle2664-7"
       cx="-1435.2207"
       cy="-820.13782"
       r="69.528488" />
    <circle
       cy="-986.914"
       cx="-1433.0824"
       id="circle2666-9"
       style="opacity:1;fill:#e9c6af;fill-opacity:1;stroke:none;stroke-width:22.37365532;stroke-miterlimit:4;stroke-dasharray:none;stroke-opacity:1"
       r="55.447968" />
    <circle
       cy="-822.276"
       cx="-1623.3783"
       id="circle2668-2"
       style="opacity:1;fill:#c83737;fill-opacity:1;stroke:none;stroke-width:16.85317993;stroke-miterlimit:4;stroke-dasharray:none;stroke-opacity:1"
       r="41.766884" />
  </g>
</svg>
